<?xml version="1.0" encoding="UTF-8"?>
<svg id="Layer_1" data-name="Layer 1" xmlns="http://www.w3.org/2000/svg" viewBox="0 0 362.68 102.23">
  <defs>
    <style>
      .cls-1 {
        fill: #22d3ee;
      }
    </style>
  </defs>
  <g>
    <path class="cls-1" d="m59.1,18.75H23.03v25.09h33.15v18.68H23.03v39.71H0V0h59.1v18.75Z"/>
    <path class="cls-1" d="m157.9,102.23h-25.09l-7.27-22.74h-36.36l-7.2,22.74h-24.95L94.24,0h27.3l36.36,102.23Zm-37.64-40.42l-10.98-34.36c-.81-2.57-1.38-5.63-1.71-9.2h-.57c-.24,2.99-.83,5.96-1.78,8.91l-11.12,34.65h26.16Z"/>
    <path class="cls-1" d="m170.66,102.23V0h37.21c11.41,0,20.17,2.09,26.3,6.27,6.13,4.18,9.2,10.08,9.2,17.68,0,5.51-1.87,10.34-5.6,14.47-3.73,4.13-8.5,7.01-14.29,8.63v.29c7.27.9,13.08,3.59,17.43,8.06s6.52,9.91,6.52,16.32c0,9.36-3.35,16.79-10.05,22.28s-15.85,8.23-27.45,8.23h-39.28,0Zm23.03-85.26v24.24h10.12c4.75,0,8.49-1.15,11.23-3.46,2.73-2.3,4.1-5.48,4.1-9.52,0-7.51-5.61-11.26-16.82-11.26,0,0-8.63,0-8.63,0Zm0,41.35v26.95h12.48c5.32,0,9.49-1.24,12.51-3.71,3.02-2.47,4.53-5.85,4.53-10.12s-1.49-7.3-4.46-9.62c-2.97-2.33-7.12-3.49-12.44-3.49h-12.62,0Z"/>
  </g>
  <path class="cls-1" d="m345.58,14.59S331.56.33,310.41.33c-9.96,0-16.59,3.16-20.83,6.5-6.08,4.8-7.98,13.38-3.83,19.92,2.29,3.6,6.46,6.61,13.96,6.61,18.3,0,45.86-18.77,45.86-18.77h0Z"/>
  <path class="cls-1" d="m271.68,19.58s-3.38,19.72,11.85,24.71c0,0,33.06,13.54,74.17-30.89,0,0-25.66,49.19-67.96,52.51,0,0-47.52,2.61-18.06-46.34h0Z"/>
  <path class="cls-1" d="m256.47,61.16s8.85,27.14,48.56,13.68c9.36-3.17,18.12-7.93,25.98-13.93,11.22-8.55,27.19-23.51,31.67-42.06,0,0-1.47,46.5-49.63,67.72-8.33,3.67-17.37,5.56-26.46,5.16-13.69-.6-30.84-6.18-30.12-30.59v.02Z"/>
  <path class="cls-1" d="m296.63,99.9s43.01-3.23,64.4-48.78c0,0,5.94,20.74-20.44,42.6,0,0-16.87,13.78-43.96,6.18Z"/>
</svg>